<?xml version="1.0" encoding="utf-8"?>
<!-- Generator: Adobe Illustrator 16.0.4, SVG Export Plug-In . SVG Version: 6.00 Build 0)  -->
<!DOCTYPE svg PUBLIC "-//W3C//DTD SVG 1.1//EN" "http://www.w3.org/Graphics/SVG/1.1/DTD/svg11.dtd">
<svg version="1.1" id="Layer_1" xmlns="http://www.w3.org/2000/svg" xmlns:xlink="http://www.w3.org/1999/xlink" x="0px" y="0px"
	 width="100px" height="100px" viewBox="-21.429 -25 100 100" enable-background="new -21.429 -25 100 100" xml:space="preserve">
<g>
	<path fill="#414042" d="M27.32-1.493c-13.396,0-24.291,10.898-24.291,24.292c0,13.396,10.896,24.292,24.291,24.292
		c13.396,0,24.294-10.896,24.294-24.292C51.614,9.405,40.716-1.493,27.32-1.493z M27.32,44.049c-11.717,0-21.25-9.531-21.25-21.25
		c0-11.716,9.533-21.249,21.25-21.249c11.718,0,21.249,9.533,21.249,21.249C48.569,34.518,39.038,44.049,27.32,44.049z"/>
	<path fill="#414042" d="M22.596,22.8c0,2.606,2.12,4.727,4.725,4.727c0.258,0,0.508-0.027,0.754-0.066
		c3.688,3.354,6.964,5.65,8.765,6.08c0.077,0.018,0.155,0.025,0.235,0.025h0.01c0.56,0,1.015-0.453,1.015-1.014
		c0-0.141-0.027-0.273-0.078-0.395c-0.521-1.83-2.778-5.025-6.039-8.608c0.039-0.245,0.065-0.495,0.065-0.75
		c0-2.605-2.118-4.725-4.727-4.725c-0.256,0-0.504,0.026-0.75,0.065c-3.689-3.356-6.969-5.654-8.771-6.081
		c-0.341-0.081-0.702,0.021-0.95,0.271c-0.25,0.249-0.351,0.608-0.27,0.952c0.428,1.8,2.725,5.078,6.079,8.768
		C22.622,22.295,22.596,22.545,22.596,22.8z M34.742,30.221c-1.265-0.848-2.841-2.08-4.603-3.637c0.366-0.273,0.69-0.6,0.965-0.967
		C32.663,27.381,33.896,28.955,34.742,30.221z M30.019,22.8c0,1.489-1.211,2.698-2.696,2.698c-1.487,0-2.697-1.209-2.697-2.698
		c0-1.485,1.21-2.696,2.697-2.696C28.808,20.103,30.019,21.313,30.019,22.8z"/>
	<path fill="#414042" d="M26.307,5.799V7.45c0,0.56,0.455,1.014,1.014,1.014c0.562,0,1.015-0.454,1.015-1.014V5.799
		c1.916,0.112,3.775,0.537,5.542,1.275c0.519,0.217,1.11-0.028,1.327-0.545c0.216-0.517-0.029-1.112-0.546-1.327
		c-2.325-0.971-4.794-1.463-7.338-1.463c-10.51,0-19.062,8.551-19.062,19.062c0,4.464,1.575,8.808,4.438,12.226
		c0.201,0.24,0.488,0.365,0.779,0.365c0.229,0,0.459-0.078,0.649-0.236c0.431-0.357,0.485-1,0.126-1.428
		c-2.34-2.797-3.712-6.285-3.932-9.914h1.65c0.559,0,1.014-0.453,1.014-1.014s-0.455-1.014-1.014-1.014h-1.65
		C10.827,13.199,17.721,6.306,26.307,5.799z"/>
	<path fill="#414042" d="M41.808,10.408c-0.363-0.425-1.004-0.475-1.43-0.111c-0.427,0.364-0.477,1.005-0.111,1.43
		c2.416,2.823,3.834,6.361,4.055,10.059h-1.648c-0.561,0-1.016,0.455-1.016,1.014c0,0.561,0.455,1.013,1.016,1.013h1.648
		c-0.508,8.586-7.4,15.481-15.986,15.989v-1.65c0-0.559-0.453-1.014-1.015-1.014c-0.559,0-1.014,0.455-1.014,1.014v1.652
		c-2.424-0.145-4.803-0.807-6.938-1.938c-0.496-0.262-1.109-0.072-1.371,0.422c-0.262,0.496-0.073,1.109,0.422,1.371
		c2.725,1.441,5.801,2.201,8.9,2.201c10.512,0,19.062-8.551,19.062-19.061C46.384,18.257,44.758,13.856,41.808,10.408z"/>
</g>
</svg>
