<?xml version="1.0" encoding="utf-8"?>
<!-- Generator: Adobe Illustrator 16.0.4, SVG Export Plug-In . SVG Version: 6.00 Build 0)  -->
<!DOCTYPE svg PUBLIC "-//W3C//DTD SVG 1.1//EN" "http://www.w3.org/Graphics/SVG/1.1/DTD/svg11.dtd">
<svg version="1.1" id="Layer_1" xmlns="http://www.w3.org/2000/svg" xmlns:xlink="http://www.w3.org/1999/xlink" x="0px" y="0px"
	 width="100px" height="100px" viewBox="-21.429 -25 100 100" enable-background="new -21.429 -25 100 100" xml:space="preserve">
<path fill="#414042" d="M46.079,7.543H5.894C3.196,7.543,1,9.74,1,12.438v24.353c0,2.698,2.196,4.894,4.894,4.894h40.186
	c2.698,0,4.894-2.195,4.894-4.894V12.438C50.973,9.74,48.777,7.543,46.079,7.543z M46.079,10.694c0.231,0,0.451,0.047,0.652,0.13
	L26.486,26.677L6.054,10.694H46.079z M6.663,38.533L20.2,28.989c0.475-0.333,0.587-0.989,0.253-1.462
	c-0.336-0.475-0.989-0.589-1.465-0.253L4.355,37.592c-0.126-0.241-0.204-0.51-0.204-0.801V12.438c0-0.175,0.034-0.341,0.083-0.501
	l20.957,16.394c0.381,0.298,0.838,0.447,1.295,0.447s0.914-0.149,1.295-0.447l20.04-15.694v24.154c0,0.035-0.007,0.068-0.01,0.104
	l-13.646-9.62c-0.475-0.336-1.129-0.222-1.462,0.253c-0.334,0.473-0.222,1.129,0.253,1.462l13.48,9.507
	c-0.116,0.023-0.234,0.037-0.358,0.037H6.663z"/>
</svg>
