<?xml version="1.0" encoding="utf-8"?>
<!-- Generator: Adobe Illustrator 16.0.4, SVG Export Plug-In . SVG Version: 6.00 Build 0)  -->
<!DOCTYPE svg PUBLIC "-//W3C//DTD SVG 1.1//EN" "http://www.w3.org/Graphics/SVG/1.1/DTD/svg11.dtd">
<svg version="1.1" id="Layer_1" xmlns="http://www.w3.org/2000/svg" xmlns:xlink="http://www.w3.org/1999/xlink" x="0px" y="0px"
	 width="100px" height="100px" viewBox="-21.429 -25 100 100" enable-background="new -21.429 -25 100 100" xml:space="preserve">
<path fill="#414042" d="M53.83,34.832L43.01,24.007c-0.588-0.588-1.387-0.916-2.221-0.916c-0.828,0-1.629,0.33-2.217,0.916
	l-3.877,3.875c-0.588,0.59-0.918,1.389-0.918,2.221c0,0.348,0.057,0.684,0.164,1.004l-0.24,0.242
	c-4.104-3.506-9.023-8.43-12.525-12.534l0.236-0.237c0.326,0.11,0.665,0.164,1.004,0.164c0.803,0,1.605-0.307,2.219-0.918
	l3.876-3.875c0.588-0.588,0.918-1.387,0.918-2.219c0-0.833-0.33-1.631-0.918-2.22L17.689-1.31c-0.613-0.613-1.417-0.919-2.22-0.919
	S13.864-1.923,13.25-1.31L9.375,2.565c-0.588,0.588-0.92,1.387-0.92,2.22c0,0.481,0.111,0.95,0.318,1.374
	C7.532,7.93,6.241,9.768,5.887,10.263c-1.347,1.528-1.531,3.743-0.426,5.489C12.74,27.23,25.342,39.834,36.82,47.111
	c0.74,0.471,1.59,0.717,2.459,0.717c1.115,0,2.209-0.416,3.045-1.15c0.465-0.342,2.297-1.652,4.062-2.918
	c0.426,0.203,0.889,0.305,1.352,0.305c0.803,0,1.605-0.307,2.219-0.92l3.875-3.875c0.588-0.588,0.92-1.385,0.92-2.217
	C54.752,36.219,54.42,35.42,53.83,34.832z M47.895,40.768l-5.336-5.338c-0.41-0.406-1.072-0.406-1.48,0
	c-0.408,0.41-0.408,1.07,0,1.48l3.957,3.957c-1.84,1.314-4.672,3.346-4.723,3.395c-0.279,0.277-0.652,0.426-1.033,0.426
	c-0.268,0-0.537-0.07-0.779-0.225C27.441,37.449,15.124,25.13,8.112,14.074c-0.371-0.586-0.273-1.34,0.199-1.813
	c0.051-0.05,2.056-2.908,3.354-4.762l1.226,1.225c0.203,0.205,0.471,0.307,0.74,0.307c0.267,0,0.534-0.102,0.738-0.307
	c0.408-0.408,0.408-1.07,0-1.479l-2.617-2.619l3.717-3.717l10.822,10.822l-3.717,3.717l-5.667-5.667c-0.41-0.408-1.07-0.408-1.479,0
	c-0.41,0.409-0.41,1.071,0,1.48l4.433,4.433l-2.912,2.911c4.125,5.287,11.676,12.844,16.961,16.973l2.918-2.916l1.713,1.713
	c0.205,0.205,0.473,0.309,0.74,0.309s0.535-0.104,0.738-0.309c0.41-0.406,0.41-1.07,0-1.479l-2.947-2.947l3.717-3.719l10.822,10.82
	L47.895,40.768z"/>
</svg>
